<?xml version="1.0" encoding="utf-8"?>
<!-- Generator: Adobe Illustrator 18.0.0, SVG Export Plug-In . SVG Version: 6.00 Build 0)  -->
<!DOCTYPE svg PUBLIC "-//W3C//DTD SVG 1.1//EN" "http://www.w3.org/Graphics/SVG/1.1/DTD/svg11.dtd">
<svg version="1.1" id="Layer_1" xmlns="http://www.w3.org/2000/svg" xmlns:xlink="http://www.w3.org/1999/xlink" x="0px" y="0px"
	 viewBox="0 0 91.9 91.9" enable-background="new 0 0 91.9 91.9"
	 width="18"
	 xml:space="preserve">
<g>
	<path fill="#82878c" d="M90.2,41.9L50,1.7c-2.3-2.3-6.1-2.3-8.4,0l-8.3,8.3l10.6,10.6c2.5-0.8,5.3-0.3,7.2,1.7c2,2,2.5,4.8,1.7,7.3
		L63,39.8c2.5-0.8,5.3-0.3,7.3,1.7c2.8,2.7,2.8,7.2,0,10c-2.8,2.8-7.2,2.8-10,0c-2.1-2.1-2.6-5.1-1.5-7.7l-9.5-9.5v25
		c0.7,0.3,1.3,0.8,1.9,1.3c2.8,2.7,2.8,7.2,0,10c-2.8,2.7-7.2,2.7-10,0c-2.8-2.8-2.8-7.2,0-10c0.7-0.7,1.5-1.2,2.3-1.5V33.8
		c-0.8-0.3-1.6-0.9-2.3-1.5c-2.1-2.1-2.6-5.1-1.5-7.7L29.2,14.2L1.7,41.7c-2.3,2.3-2.3,6.1,0,8.4l40.1,40.1c2.3,2.3,6.1,2.3,8.4,0
		l39.9-39.9C92.5,47.9,92.5,44.2,90.2,41.9z"/>
</g>
</svg>
